<svg xmlns="http://www.w3.org/2000/svg" viewBox="0 0 256 256">
  <defs>
    <linearGradient id="g" x1="0%" y1="0%" x2="100%" y2="100%">
      <stop offset="0%" stop-color="#33C3FF"/>
      <stop offset="100%" stop-color="#8A4DFF"/>
    </linearGradient>
    <filter id="glow" x="-50%" y="-50%" width="200%" height="200%">
      <feGaussianBlur stdDeviation="6" result="b"/>
      <feMerge>
        <feMergeNode in="b"/>
        <feMergeNode in="SourceGraphic"/>
      </feMerge>
    </filter>
  </defs>
  <rect width="256" height="256" rx="56" fill="#0B0D10"/>
  <g filter="url(#glow)">
    <path d="M128 36c6 0 12 3 16 9l64 110c9 16-2 36-20 36H68c-18 0-30-20-20-36l64-110c4-6 10-9 16-9z" fill="url(#g)"/>
    <circle cx="128" cy="130" r="28" fill="#33C3FF"/>
    <path d="M128 56c4 0 8 2 10 6l54 92c6 10-1 22-12 22H76c-11 0-18-12-12-22l54-92c2-4 6-6 10-6z" fill="#0B0D10"/>
  </g>
</svg>
