<?xml version="1.0" encoding="UTF-8"?>
<svg width="256" height="64" viewBox="0 0 256 64" fill="none" xmlns="http://www.w3.org/2000/svg" role="img" aria-label="AURA logo">
  <title>AURA</title>
  <!-- Mark: quartered circle -->
  <g transform="translate(0,0)">
    <path d="M48 16C48 7.163 40.837 0 32 0H16C7.163 0 0 7.163 0 16v0c0 2.209 1.791 4 4 4h24c2.209 0 4-1.791 4-4V16z" fill="#111827"/>
    <path d="M48 48c0 8.837-7.163 16-16 16H16C7.163 64 0 56.837 0 48v0c0-2.209 1.791-4 4-4h24c2.209 0 4 1.791 4 4V48z" fill="#111827"/>
    <path d="M64 32c0-8.837-7.163-16-16-16H32c-2.209 0-4 1.791-4 4v24c0 2.209 1.791 4 4 4h16c8.837 0 16-7.163 16-16z" fill="#111827"/>
    <path d="M0 32c0-8.837 7.163-16 16-16h16c2.209 0 4 1.791 4 4v24c0 2.209-1.791 4-4 4H16C7.163 48 0 40.837 0 32z" fill="#111827"/>
  </g>

  <!-- Wordmark: AURA -->
  <g fill="#111827" transform="translate(88,14)">
    <path d="M7.6 36L20.1 0h6.2L39 36h-5.9l-2.7-8.3H16.5L13.8 36H7.6zm10-13.2h10.8L23.1 6.9 17.6 22.8z"/>
    <path d="M45.5 36V0h5.6v22.1c0 6.3 3.4 9.9 9 9.9s9-3.6 9-9.9V0h5.6v22c0 10-6 15.8-14.6 15.8S45.5 31.9 45.5 22z"/>
    <path d="M90.9 36V0h14.9c7.4 0 12 4 12 10.3 0 4.9-2.7 8.2-7.1 9.6l8.3 16.1h-6.5l-7.6-15.1h-8.4V36h-5.6zm5.6-20h8.7c4.8 0 7.5-2 7.5-5.7 0-3.5-2.7-5.5-7.5-5.5h-8.7V16z"/>
    <path d="M132.5 36L145 0h6.2L164 36h-5.9l-2.7-8.3h-14.1L137.5 36h-5zM142.5 22.8h10.8l-5.3-15.9-5.5 15.9z"/>
  </g>
</svg>